<?xml version="1.0" encoding="UTF-8"?>
<!-- PWA splash 전용 로고 — 흰색 tt: 글자만 (둥근 배경 박스 X).
     배경은 globals.css 의 #4CBFF2 단색이 깔리고 이 SVG 가 그 위에 흰 tt: 만 그림. -->
<svg xmlns="http://www.w3.org/2000/svg" viewBox="0 0 147.18 147.18">
  <g fill="#ffffff">
    <path d="M106.77,60.05c0-3.63,3.11-6.75,7.06-6.75s6.95,3.11,6.95,6.75-3.11,7.06-6.95,7.06-7.06-3.22-7.06-7.06ZM106.77,90.99c0-3.63,3.11-6.75,7.06-6.75s6.95,3.11,6.95,6.75-3.11,6.85-6.95,6.85-7.06-3.22-7.06-6.85Z"/>
    <path d="M57.71,97.51c-5.74,0-8.16-2.87-8.05-9.04l.55-27.89h9.71v-5.36l-9.61-.05.11-11.46-.45-.11-23.59,17.42h11.79l-.55,28.88c-.1,9.37,4.08,13.67,12.9,13.67,6.5,0,11.79-3.97,16.76-9.04l-.45-.44c-2.09,1.87-4.84,3.41-9.14,3.41Z"/>
    <path d="M99.71,94.09c-2.09,1.87-4.85,3.42-9.15,3.42-5.73,0-8.16-2.87-8.05-9.04l.55-27.89h14.77v-5.3l-14.66-.1.11-11.46-.44-.11-18.52,13.67v3.31h6.71v.44h.01l-.55,28.88c-.11,9.37,4.08,13.67,12.9,13.67,6.5,0,11.8-3.97,16.76-9.04l-.44-.44Z"/>
  </g>
</svg>
