<svg width="17" height="12" viewBox="0 0 17 12" fill="none" xmlns="http://www.w3.org/2000/svg">
<g clip-path="url(#clip0_222_2681)">
<path d="M16.605 5.19162C16.619 5.69221 16.619 6.23449 16.605 6.73507C16.5793 7.66229 16.5273 8.70549 16.3688 9.62766C15.9669 11.9618 14.3266 11.7988 12.4414 11.9027C10.3356 12.0187 8.23296 12.0183 6.12355 11.9679C4.96992 11.9403 3.80557 11.9383 2.65909 11.7971C0.53766 11.5362 0.287182 10.5061 0.111425 8.49604C-0.0503625 6.64027 -0.0617331 4.2328 0.251446 2.40056C0.673783 -0.070103 2.57105 0.186074 4.53427 0.0912685C7.03093 -0.029424 9.52564 -0.0307688 12.0204 0.0912685C13.2536 0.151447 15.2015 0.0284007 15.9647 1.20776C16.5134 2.05597 16.5764 4.16019 16.6053 5.19162H16.605ZM6.657 3.44679V8.58043L10.9665 6.03008L6.657 3.44679Z" fill="#FF0200"/>
<path d="M6.65723 3.44666L10.967 6.02995L6.65723 8.58029V3.44666Z" fill="white"/>
</g>
<defs>
<clipPath id="clip0_222_2681">
<rect width="16.6154" height="12" fill="white"/>
</clipPath>
</defs>
</svg>
