<?xml version="1.0" encoding="UTF-8"?>
<svg id="Layer_1" data-name="Layer 1" xmlns="http://www.w3.org/2000/svg" viewBox="0 0 539.77 147.18">
  <defs>
    <style>
      .cls-1 {
        fill: #00b1ff;
      }

      .cls-2 {
        fill: #fff;
      }
    </style>
  </defs>
  <g>
    <polygon class="cls-1" points="263.83 81.28 303.72 81.28 303.72 122.74 314.55 122.74 314.55 81.28 354.44 81.28 354.44 77.25 263.83 77.25 263.83 81.28"/>
    <path class="cls-1" d="M339.38,25.37h-11.37v16.73h-37.86v-16.73h-11.18v41.71h60.41V25.37ZM328.02,63.49h-37.86v-17.15h37.86v17.15Z"/>
    <rect class="cls-1" x="242.99" y="24.73" width="10.84" height="98"/>
    <path class="cls-1" d="M222.91,89.68v-47.9h11.68v-5.61h-61.28v5.61h11.68v50.09c-4.04-.02-8.26-.07-12.8-.1v5.61c11.44-.12,41.06.49,64.94-6.91.08-.03-.86-3.2-.86-3.2-4.79,1-9.2,1.79-13.35,2.41ZM211.23,41.78v49.29c-5.01.44-9.77.65-14.58.75v-50.04h14.58Z"/>
    <rect class="cls-1" x="433.16" y="24.07" width="10.46" height="69.12"/>
    <path class="cls-1" d="M409.61,73.37c-8.42,2.56-23.48,4.23-34.11,4.35v-21.04h22.61v-4.23h-22.61v-18.37h28.68v-3.6h-39.52v52.57c11.95.09,33.78-2.13,45.85-6.5l-.91-3.19Z"/>
    <polygon class="cls-1" points="403.45 58.63 415.86 58.63 415.86 93.18 426.32 93.18 426.32 24.07 415.86 24.07 415.86 55.14 403.45 55.14 403.45 58.63"/>
    <path class="cls-1" d="M394.62,117.15v-25.6l-10.84-1.5v32.68c40.8,1.69,53.47-1.76,63.02-4.11v-3.47c-20.09,4.1-45.33,2.53-52.18,1.99Z"/>
    <rect class="cls-1" x="526.13" y="24.07" width="10.46" height="69.12"/>
    <path class="cls-1" d="M502.57,73.37c-8.42,2.56-17.22,3.48-25.98,4.17l-8.13.19v-21.04h22.61v-4.23h-22.61v-18.37h28.68v-3.6h-39.52v52.57c11.95.09,33.78-2.13,45.85-6.5l-.91-3.19Z"/>
    <polygon class="cls-1" points="496.41 58.63 508.82 58.63 508.82 93.18 519.29 93.18 519.29 24.07 508.82 24.07 508.82 55.14 496.41 55.14 496.41 58.63"/>
    <path class="cls-1" d="M487.58,117.15v-25.6l-10.84-1.5v32.68c40.8,1.69,53.47-1.76,63.02-4.11v-3.47c-20.09,4.1-45.33,2.53-52.18,1.99Z"/>
  </g>
  <g>
    <circle class="cls-1" cx="73.59" cy="73.59" r="73.59"/>
    <g>
      <path class="cls-2" d="M106.77,60.05c0-3.63,3.11-6.75,7.06-6.75s6.95,3.11,6.95,6.75-3.11,7.06-6.95,7.06-7.06-3.22-7.06-7.06ZM106.77,90.99c0-3.63,3.11-6.75,7.06-6.75s6.95,3.11,6.95,6.75-3.11,6.85-6.95,6.85-7.06-3.22-7.06-6.85Z"/>
      <path class="cls-2" d="M57.71,97.51c-5.74,0-8.16-2.87-8.05-9.04l.55-27.89h9.71v-5.36l-9.61-.05.11-11.46-.45-.11-23.59,17.42h11.79l-.55,28.88c-.1,9.37,4.08,13.67,12.9,13.67,6.5,0,11.79-3.97,16.76-9.04l-.45-.44c-2.09,1.87-4.84,3.41-9.14,3.41Z"/>
      <path class="cls-2" d="M99.71,94.09c-2.09,1.87-4.85,3.42-9.15,3.42-5.73,0-8.16-2.87-8.05-9.04l.55-27.89h14.77v-5.3l-14.66-.1.11-11.46-.44-.11-18.52,13.67v3.31h6.71v.44h.01l-.55,28.88c-.11,9.37,4.08,13.67,12.9,13.67,6.5,0,11.8-3.97,16.76-9.04l-.44-.44Z"/>
    </g>
  </g>
</svg>