<?xml version="1.0" encoding="UTF-8"?>
<svg id="Layer_1" data-name="Layer 1" xmlns="http://www.w3.org/2000/svg" viewBox="0 0 539.77 147.18">
  <defs>
    <style>
      .cls-1 {
        fill: #71bfea;
      }
    </style>
  </defs>
  <g>
    <polygon class="cls-1" points="263.83 81.28 303.72 81.28 303.72 122.74 314.55 122.74 314.55 81.28 354.44 81.28 354.44 77.25 263.83 77.25 263.83 81.28"/>
    <path class="cls-1" d="M339.38,25.37h-11.37v16.73h-37.86v-16.73h-11.18v41.71h60.41V25.37ZM328.02,63.49h-37.86v-17.15h37.86v17.15Z"/>
    <rect class="cls-1" x="242.99" y="24.73" width="10.84" height="98"/>
    <path class="cls-1" d="M222.91,89.68v-47.9h11.68v-5.61h-61.28v5.61h11.68v50.09c-4.04-.02-8.26-.07-12.8-.1v5.61c11.44-.12,41.06.49,64.94-6.91.08-.03-.86-3.2-.86-3.2-4.79,1-9.2,1.79-13.35,2.41ZM211.23,41.78v49.29c-5.01.44-9.77.65-14.58.75v-50.04h14.58Z"/>
    <rect class="cls-1" x="433.16" y="24.07" width="10.46" height="69.12"/>
    <path class="cls-1" d="M409.61,73.37c-8.42,2.56-23.48,4.23-34.11,4.35v-21.04h22.61v-4.23h-22.61v-18.37h28.68v-3.6h-39.52v52.57c11.95.09,33.78-2.13,45.85-6.5l-.91-3.19Z"/>
    <polygon class="cls-1" points="403.45 58.63 415.86 58.63 415.86 93.18 426.32 93.18 426.32 24.07 415.86 24.07 415.86 55.14 403.45 55.14 403.45 58.63"/>
    <path class="cls-1" d="M394.62,117.15v-25.6l-10.84-1.5v32.68c40.8,1.69,53.47-1.76,63.02-4.11v-3.47c-20.09,4.1-45.33,2.53-52.18,1.99Z"/>
    <rect class="cls-1" x="526.13" y="24.07" width="10.46" height="69.12"/>
    <path class="cls-1" d="M502.57,73.37c-8.42,2.56-17.22,3.48-25.98,4.17l-8.13.19v-21.04h22.61v-4.23h-22.61v-18.37h28.68v-3.6h-39.52v52.57c11.95.09,33.78-2.13,45.85-6.5l-.91-3.19Z"/>
    <polygon class="cls-1" points="496.41 58.63 508.82 58.63 508.82 93.18 519.29 93.18 519.29 24.07 508.82 24.07 508.82 55.14 496.41 55.14 496.41 58.63"/>
    <path class="cls-1" d="M487.58,117.15v-25.6l-10.84-1.5v32.68c40.8,1.69,53.47-1.76,63.02-4.11v-3.47c-20.09,4.1-45.33,2.53-52.18,1.99Z"/>
  </g>
  <path class="cls-1" d="M73.59,0C32.95,0,0,32.95,0,73.59s32.95,73.59,73.59,73.59,73.59-32.95,73.59-73.59S114.23,0,73.59,0ZM50.54,103.57c-8.82,0-13.01-4.3-12.9-13.67l.55-28.88h-11.79l23.59-17.42.45.11-.11,11.46,9.61.05v5.36h-9.71l-.55,27.89c-.11,6.17,2.31,9.04,8.05,9.04,4.3,0,7.06-1.54,9.14-3.41l.45.44c-4.97,5.07-10.26,9.04-16.76,9.04ZM83.39,103.57c-8.82,0-13.01-4.3-12.9-13.67l.55-28.88h-.01v-.44h-6.71v-3.31l18.52-13.67.44.11-.11,11.46,14.66.1v5.3h-14.77l-.55,27.89c-.11,6.17,2.31,9.04,8.05,9.04,4.3,0,7.06-1.54,9.15-3.42l.44.44c-4.96,5.07-10.25,9.04-16.76,9.04ZM113.82,97.84c-3.94,0-7.06-3.22-7.06-6.85s3.11-6.75,7.06-6.75,6.95,3.11,6.95,6.75-3.11,6.85-6.95,6.85ZM113.82,67.11c-3.94,0-7.06-3.22-7.06-7.06,0-3.63,3.11-6.75,7.06-6.75s6.95,3.11,6.95,6.75-3.11,7.06-6.95,7.06Z"/>
</svg>