<svg xmlns="http://www.w3.org/2000/svg" viewBox="0 0 240 240" width="240" height="240">
  <rect width="240" height="240" fill="#E5CFCB"/>
  <!-- 정장 (검정 자켓) -->
  <ellipse cx="120" cy="250" rx="95" ry="48" fill="#1F1F1F"/>
  <!-- 셔츠 V (안에 흰셔츠) -->
  <path d="M 105 200 L 120 232 L 135 200 L 135 250 L 105 250 Z" fill="#FFFFFF"/>
  <!-- 넥타이 -->
  <path d="M 117 218 L 123 218 L 121 240 L 119 240 Z" fill="#A85060"/>
  <path d="M 117 218 L 120 215 L 123 218 Z" fill="#7A3A48"/>
  <!-- 정장 라펠 -->
  <path d="M 105 215 L 95 240 L 105 250 Z" fill="#16161A"/>
  <path d="M 135 215 L 145 240 L 135 250 Z" fill="#16161A"/>
  <!-- 남, 깔끔한 단정 머리 (정수리 살짝 볼륨) -->
  <path d="M 78 118 Q 75 60 122 58 Q 168 60 162 122 Q 158 95 142 92 Q 122 90 100 92 Q 86 95 78 118 Z" fill="#16161A"/>
  <!-- 목 -->
  <path d="M 108 178 Q 108 198 102 220 L 138 220 Q 132 198 132 178 Z" fill="#F0CFAB"/>
  <path d="M 108 195 Q 105 208 102 218" stroke="#D4B084" stroke-width="0.8" fill="none" opacity="0.5"/>
  <!-- 얼굴 -->
  <ellipse cx="120" cy="146" rx="33" ry="40" fill="#F0CFAB"/>
  <!-- 이마 라인 (옆가르마 깔끔) -->
  <path d="M 86 118 Q 105 100 112 102 Q 130 100 154 118 L 154 110 Q 138 92 112 94 Q 100 100 86 110 Z" fill="#16161A"/>
  <!-- 눈썹 -->
  <path d="M 100 134 L 114 132" stroke="#16161A" stroke-width="2.5" stroke-linecap="round"/>
  <path d="M 126 132 L 140 134" stroke="#16161A" stroke-width="2.5" stroke-linecap="round"/>
  <circle cx="108" cy="146" r="2" fill="#16161A"/>
  <circle cx="132" cy="146" r="2" fill="#16161A"/>
  <path d="M 116 168 L 124 168" stroke="#3D2418" stroke-width="1.5" stroke-linecap="round"/>
</svg>
