<svg xmlns="http://www.w3.org/2000/svg" viewBox="0 0 240 240" width="240" height="240">
  <rect width="240" height="240" fill="#F4D8DE"/>
  <ellipse cx="120" cy="250" rx="92" ry="46" fill="#A85068"/>
  <!-- 보브 단발 (귀밑 살짝 안쪽 컬) -->
  <path d="M 70 118 Q 70 168 88 180 Q 100 175 110 178 L 130 178 Q 140 175 152 180 Q 170 168 170 118 Q 170 58 120 58 Q 70 58 70 118 Z" fill="#3A2818"/>
  <!-- 컬 끝 -->
  <path d="M 88 180 Q 90 188 100 184 Z" fill="#3A2818"/>
  <path d="M 152 180 Q 150 188 140 184 Z" fill="#3A2818"/>
  <!-- 목 -->
  <path d="M 108 178 Q 108 198 102 220 L 138 220 Q 132 198 132 178 Z" fill="#F0CFAB"/>
  <path d="M 108 195 Q 105 208 102 218" stroke="#D4B084" stroke-width="0.8" fill="none" opacity="0.5"/>
  <!-- 둥근 얼굴 (살짝 통통) -->
  <ellipse cx="120" cy="146" rx="35" ry="38" fill="#F0CFAB"/>
  <!-- 앞머리 (시스루 일자) -->
  <path d="M 86 116 Q 105 96 122 100 Q 140 96 156 116 L 156 110 Q 138 94 122 96 Q 105 94 86 110 Z" fill="#3A2818"/>
  <!-- 헤어핀 (액세서리) -->
  <rect x="76" y="115" width="14" height="3" fill="#FF8FA3" rx="1"/>
  <circle cx="108" cy="146" r="2" fill="#16161A"/>
  <circle cx="132" cy="146" r="2" fill="#16161A"/>
  <path d="M 116 164 Q 120 167 124 164" stroke="#3D2418" stroke-width="1.5" fill="none" stroke-linecap="round"/>
</svg>
