<svg xmlns="http://www.w3.org/2000/svg" viewBox="0 0 240 240" width="240" height="240">
  <rect width="240" height="240" fill="#F1DAE0"/>
  <ellipse cx="120" cy="250" rx="92" ry="46" fill="#3F4F65"/>
  <path d="M 100 200 L 120 220 L 140 200 L 145 240 L 95 240 Z" fill="#2A3D52"/>
  <!-- 깍두기 머리 (남, 짧고 양쪽으로 칼각) -->
  <path d="M 78 118 Q 78 70 122 65 Q 168 70 162 118 L 162 105 L 78 105 Z" fill="#16161A"/>
  <!-- 정수리 평평한 라인 -->
  <path d="M 78 80 L 162 80" stroke="#16161A" stroke-width="0" />
  <path d="M 80 78 Q 122 70 160 78 L 160 105 L 80 105 Z" fill="#16161A"/>
  <!-- 목 -->
  <path d="M 108 178 Q 108 198 102 220 L 138 220 Q 132 198 132 178 Z" fill="#F0CFAB"/>
  <path d="M 108 195 Q 105 208 102 218" stroke="#D4B084" stroke-width="0.8" fill="none" opacity="0.5"/>
  <!-- 얼굴 (살짝 각진) -->
  <path d="M 88 130 Q 88 165 100 180 Q 120 188 140 180 Q 152 165 152 130 Q 152 110 120 108 Q 88 110 88 130 Z" fill="#F0CFAB"/>
  <!-- 이마 라인 -->
  <path d="M 88 118 Q 105 105 122 105 Q 140 105 152 118 Q 140 98 122 100 Q 105 98 88 118 Z" fill="#16161A"/>
  <!-- 눈썹 -->
  <path d="M 100 134 L 114 132" stroke="#16161A" stroke-width="2.5" stroke-linecap="round"/>
  <path d="M 126 132 L 140 134" stroke="#16161A" stroke-width="2.5" stroke-linecap="round"/>
  <!-- 눈 -->
  <circle cx="108" cy="146" r="2" fill="#16161A"/>
  <circle cx="132" cy="146" r="2" fill="#16161A"/>
  <!-- 입 (단정) -->
  <path d="M 116 168 L 124 168" stroke="#3D2418" stroke-width="1.5" stroke-linecap="round"/>
</svg>
