<svg xmlns="http://www.w3.org/2000/svg" viewBox="0 0 240 240" width="240" height="240">
  <rect width="240" height="240" fill="#D8E4D4"/>
  <ellipse cx="120" cy="250" rx="92" ry="46" fill="#7A9C75"/>
  <!-- 단발 머리 -->
  <path d="M 72 118 Q 72 168 100 178 Q 122 182 142 178 Q 168 168 168 118 Q 168 58 120 58 Q 72 58 72 118 Z" fill="#3A2818"/>
  <!-- 헤어밴드 (얇은 띠) -->
  <path d="M 72 92 Q 120 75 168 92 L 168 100 Q 120 84 72 100 Z" fill="#9C5D5D"/>
  <!-- 헤어밴드 라인 -->
  <path d="M 72 100 Q 120 86 168 100" stroke="#7A4040" stroke-width="0.8" fill="none"/>
  <!-- 목 -->
  <path d="M 108 178 Q 108 198 102 220 L 138 220 Q 132 198 132 178 Z" fill="#F0CFAB"/>
  <path d="M 108 195 Q 105 208 102 218" stroke="#D4B084" stroke-width="0.8" fill="none" opacity="0.5"/>
  <!-- 얼굴 -->
  <ellipse cx="120" cy="146" rx="33" ry="40" fill="#F0CFAB"/>
  <!-- 앞머리 (헤어밴드 아래로 살짝) -->
  <path d="M 86 116 Q 105 100 122 102 Q 142 100 156 118 Q 145 106 130 108 Q 122 116 110 108 Q 95 106 86 116 Z" fill="#3A2818"/>
  <circle cx="108" cy="146" r="2" fill="#16161A"/>
  <circle cx="132" cy="146" r="2" fill="#16161A"/>
  <path d="M 116 164 Q 120 167 124 164" stroke="#3D2418" stroke-width="1.5" fill="none" stroke-linecap="round"/>
</svg>
