<svg xmlns="http://www.w3.org/2000/svg" viewBox="0 0 240 240" width="240" height="240">
  <rect width="240" height="240" fill="#D5D9CB"/>
  <ellipse cx="120" cy="250" rx="92" ry="46" fill="#5C6B4F"/>
  <!-- 낮은 묶음 (뒷머리, 어깨 위치) -->
  <ellipse cx="200" cy="195" rx="14" ry="24" fill="#16161A"/>
  <!-- 깔끔하게 빗어 넘긴 머리 (양 옆 단정) -->
  <path d="M 76 118 Q 76 60 120 58 Q 168 60 168 118 Q 168 145 195 175 Q 175 165 168 145 Q 158 130 130 130 Q 100 130 88 145 Q 80 130 76 118 Z" fill="#16161A"/>
  <!-- 묶음 끈 -->
  <ellipse cx="200" cy="180" rx="12" ry="3" fill="#9C8C5C"/>
  <!-- 목 -->
  <path d="M 108 178 Q 108 198 102 220 L 138 220 Q 132 198 132 178 Z" fill="#F0CFAB"/>
  <path d="M 108 195 Q 105 208 102 218" stroke="#D4B084" stroke-width="0.8" fill="none" opacity="0.5"/>
  <!-- 얼굴 -->
  <ellipse cx="120" cy="146" rx="33" ry="40" fill="#F0CFAB"/>
  <!-- 앞머리 (가운데 가르마, 깔끔하게 옆으로) -->
  <path d="M 86 116 Q 100 90 120 90 Q 140 90 156 116 Q 145 100 130 102 L 122 110 L 110 102 Q 95 100 86 116 Z" fill="#16161A"/>
  <circle cx="108" cy="146" r="2" fill="#16161A"/>
  <circle cx="132" cy="146" r="2" fill="#16161A"/>
  <path d="M 116 164 L 124 164" stroke="#3D2418" stroke-width="1.5" stroke-linecap="round"/>
</svg>
