<svg xmlns="http://www.w3.org/2000/svg" viewBox="0 0 240 240" width="240" height="240">
  <rect width="240" height="240" fill="#D9DBDF"/>
  <ellipse cx="120" cy="250" rx="92" ry="46" fill="#5C5C68"/>
  <!-- 옆머리만 길게 (한쪽 사이드 포니, 활동적 K-pop 느낌) -->
  <ellipse cx="200" cy="180" rx="13" ry="40" fill="#16161A"/>
  <!-- 메인 머리 (단정하게 한쪽으로 빗어 넘김) -->
  <path d="M 76 118 Q 76 60 120 58 Q 168 60 168 118 Q 175 145 195 168 Q 178 158 168 145 Q 156 130 130 130 Q 100 130 88 145 Q 80 130 76 118 Z" fill="#16161A"/>
  <!-- 묶음 끈 -->
  <ellipse cx="200" cy="160" rx="12" ry="3" fill="#A85060"/>
  <!-- 목 -->
  <path d="M 108 178 Q 108 198 102 220 L 138 220 Q 132 198 132 178 Z" fill="#F0CFAB"/>
  <path d="M 108 195 Q 105 208 102 218" stroke="#D4B084" stroke-width="0.8" fill="none" opacity="0.5"/>
  <!-- 얼굴 -->
  <ellipse cx="120" cy="146" rx="33" ry="40" fill="#F0CFAB"/>
  <!-- 앞머리 (옆쪽으로 한방향) -->
  <path d="M 86 116 Q 105 88 138 95 Q 152 88 156 122 Q 148 100 138 102 Q 128 116 110 110 Q 94 100 86 116 Z" fill="#16161A"/>
  <circle cx="108" cy="146" r="2" fill="#16161A"/>
  <circle cx="132" cy="146" r="2" fill="#16161A"/>
  <path d="M 116 164 Q 120 167 124 164" stroke="#3D2418" stroke-width="1.5" fill="none" stroke-linecap="round"/>
</svg>
