<svg xmlns="http://www.w3.org/2000/svg" viewBox="0 0 240 240" width="240" height="240">
  <rect width="240" height="240" fill="#F4E0D0"/>
  <ellipse cx="120" cy="250" rx="92" ry="46" fill="#A8704A"/>
  <!-- 포니테일 (살짝 옆으로) -->
  <ellipse cx="180" cy="170" rx="13" ry="38" fill="#16161A"/>
  <!-- 머리 (당겨 묶은) -->
  <path d="M 78 118 Q 75 60 122 58 Q 168 60 165 115 Q 158 100 145 102 Q 124 105 100 102 Q 86 102 78 118 Z" fill="#16161A"/>
  <!-- 목 -->
  <path d="M 108 178 Q 108 198 102 220 L 138 220 Q 132 198 132 178 Z" fill="#F0CFAB"/>
  <path d="M 108 195 Q 105 208 102 218" stroke="#D4B084" stroke-width="0.8" fill="none" opacity="0.5"/>
  <ellipse cx="120" cy="146" rx="33" ry="40" fill="#F0CFAB"/>
  <!-- 앞머리 살짝 옆으로 -->
  <path d="M 88 118 Q 105 95 124 95 Q 140 90 156 118 Q 145 102 132 104 Q 115 110 100 102 Q 90 102 88 118 Z" fill="#16161A"/>
  <!-- 묶음 끈 -->
  <ellipse cx="180" cy="135" rx="12" ry="4" fill="#A8704A"/>
  <circle cx="108" cy="146" r="2" fill="#16161A"/>
  <circle cx="132" cy="146" r="2" fill="#16161A"/>
  <path d="M 116 164 Q 120 167 124 164" stroke="#3D2418" stroke-width="1.5" fill="none" stroke-linecap="round"/>
</svg>
