<svg xmlns="http://www.w3.org/2000/svg" viewBox="0 0 240 240" width="240" height="240">
  <rect width="240" height="240" fill="#F4ECC8"/>
  <ellipse cx="120" cy="250" rx="92" ry="46" fill="#9C8444"/>
  <!-- 풍성한 곱슬 머리 (볼륨 큰 외곽) -->
  <path d="M 50 130 Q 38 95 55 75 Q 60 55 88 60 Q 105 42 130 50 Q 158 42 175 65 Q 195 70 195 100 Q 200 130 188 145 Q 192 200 174 235 L 66 235 Q 48 200 52 145 Q 40 130 50 130 Z" fill="#5C3D2E"/>
  <!-- 곱슬 디테일 (둥근 컬들 외곽) -->
  <circle cx="58" cy="120" r="13" fill="#5C3D2E"/>
  <circle cx="182" cy="120" r="13" fill="#5C3D2E"/>
  <circle cx="62" cy="170" r="14" fill="#5C3D2E"/>
  <circle cx="178" cy="170" r="14" fill="#5C3D2E"/>
  <circle cx="68" cy="210" r="13" fill="#5C3D2E"/>
  <circle cx="172" cy="210" r="13" fill="#5C3D2E"/>
  <!-- 곱슬 highlight -->
  <circle cx="62" cy="115" r="3" fill="#7A5230" opacity="0.7"/>
  <circle cx="178" cy="115" r="3" fill="#7A5230" opacity="0.7"/>
  <!-- 목 -->
  <path d="M 108 178 Q 108 198 102 220 L 138 220 Q 132 198 132 178 Z" fill="#F0CFAB"/>
  <path d="M 108 195 Q 105 208 102 218" stroke="#D4B084" stroke-width="0.8" fill="none" opacity="0.5"/>
  <!-- 둥근 얼굴 -->
  <ellipse cx="120" cy="148" rx="36" ry="40" fill="#F0CFAB"/>
  <!-- 앞머리 (곱슬 라인) -->
  <path d="M 88 118 Q 95 100 108 105 Q 115 96 124 100 Q 138 95 152 110 Q 158 116 154 122 Q 145 105 134 108 Q 122 118 110 108 Q 95 105 88 118 Z" fill="#5C3D2E"/>
  <circle cx="108" cy="148" r="2" fill="#16161A"/>
  <circle cx="132" cy="148" r="2" fill="#16161A"/>
  <path d="M 116 166 Q 120 169 124 166" stroke="#3D2418" stroke-width="1.5" fill="none" stroke-linecap="round"/>
</svg>
