<svg xmlns="http://www.w3.org/2000/svg" viewBox="0 0 240 240" width="240" height="240">
  <rect width="240" height="240" fill="#E0D0EC"/>
  <ellipse cx="120" cy="250" rx="92" ry="46" fill="#5C4575"/>
  <!-- 단발 머리 (베레모 아래로 자연스럽게) -->
  <path d="M 72 130 Q 72 175 96 188 Q 120 192 144 188 Q 168 175 168 130 Q 168 105 120 100 Q 72 105 72 130 Z" fill="#16161A"/>
  <!-- 목 -->
  <path d="M 108 180 Q 108 200 102 222 L 138 222 Q 132 200 132 180 Z" fill="#F0CFAB"/>
  <path d="M 108 197 Q 105 210 102 220" stroke="#D4B084" stroke-width="0.8" fill="none" opacity="0.5"/>
  <!-- 얼굴 -->
  <ellipse cx="120" cy="148" rx="33" ry="40" fill="#F0CFAB"/>
  <!-- 앞머리 -->
  <path d="M 88 122 Q 105 110 122 110 Q 142 108 154 124 Q 145 116 132 116 Q 122 122 110 116 Q 96 116 88 122 Z" fill="#16161A"/>
  <!-- ── 명확한 베레모 (살짝 비스듬히 얹힌 디스크) ── -->
  <!-- 베레모 그림자 (헤어 위) -->
  <ellipse cx="118" cy="98" rx="56" ry="8" fill="#3D2C50" opacity="0.25"/>
  <!-- 베레모 본체 (살짝 비스듬한 둥근 디스크) -->
  <ellipse cx="118" cy="86" rx="54" ry="20" fill="#7A5FA8"/>
  <!-- 베레모 윗면 (봉긋함 표현) -->
  <ellipse cx="115" cy="78" rx="44" ry="11" fill="#9579C2"/>
  <!-- 베레모 꼭지 -->
  <circle cx="148" cy="68" r="4" fill="#5C4575"/>
  <!-- 베레모 림 라인 (디테일) -->
  <ellipse cx="118" cy="92" rx="54" ry="3" fill="#5C4575" opacity="0.5"/>
  <!-- 눈 -->
  <circle cx="108" cy="148" r="2" fill="#16161A"/>
  <circle cx="132" cy="148" r="2" fill="#16161A"/>
  <!-- 입 -->
  <path d="M 116 166 L 124 166" stroke="#A8324A" stroke-width="2" stroke-linecap="round"/>
</svg>
