<svg xmlns="http://www.w3.org/2000/svg" viewBox="0 0 240 240" width="240" height="240">
  <rect width="240" height="240" fill="#DEEFE6"/>
  <ellipse cx="120" cy="250" rx="92" ry="46" fill="#5C6B5C"/>
  <!-- 갈색 보브 (턱선) -->
  <path d="M 70 120 Q 70 175 96 188 Q 120 192 144 188 Q 170 175 170 120 Q 170 60 120 58 Q 70 60 70 120 Z" fill="#3A2818"/>
  <!-- 목 -->
  <path d="M 108 178 Q 108 198 102 220 L 138 220 Q 132 198 132 178 Z" fill="#F0CFAB"/>
  <path d="M 108 195 Q 105 208 102 218" stroke="#D4B084" stroke-width="0.8" fill="none" opacity="0.5"/>
  <ellipse cx="120" cy="146" rx="33" ry="40" fill="#F0CFAB"/>
  <!-- 앞머리 (시스루 일자) -->
  <path d="M 86 116 Q 105 96 122 100 Q 142 96 156 116 L 156 108 Q 138 92 122 95 Q 105 92 86 108 Z" fill="#3A2818"/>
  <circle cx="108" cy="146" r="2" fill="#16161A"/>
  <circle cx="132" cy="146" r="2" fill="#16161A"/>
  <path d="M 116 164 Q 120 167 124 164" stroke="#3D2418" stroke-width="1.5" fill="none" stroke-linecap="round"/>
</svg>
