<svg xmlns="http://www.w3.org/2000/svg" viewBox="0 0 240 240" width="240" height="240">
  <defs>
    <linearGradient id="bg01" x1="0" y1="0" x2="0" y2="1">
      <stop offset="0" stop-color="#FCE8EA"/>
      <stop offset="1" stop-color="#E8C4C4"/>
    </linearGradient>
  </defs>
  <rect width="240" height="240" fill="url(#bg01)"/>
  <ellipse cx="120" cy="250" rx="92" ry="46" fill="#2D2D32"/>
  <!-- 긴 검정 생머리 (갸름한 V라인 얼굴 감싸는 흐름) -->
  <path d="M 66 122 Q 58 220 80 252 L 160 252 Q 182 220 174 122 Q 174 64 120 60 Q 66 64 66 122 Z" fill="#16161A"/>
  <!-- 목 -->
  <path d="M 108 178 Q 108 198 102 220 L 138 220 Q 132 198 132 178 Z" fill="#F0CFAB"/>
  <path d="M 108 195 Q 105 208 102 218" stroke="#D4B084" stroke-width="0.8" fill="none" opacity="0.5"/>
  <!-- 갸름한 V라인 얼굴 -->
  <path d="M 92 130 Q 92 165 102 182 Q 120 192 138 182 Q 148 165 148 130 Q 148 110 120 108 Q 92 110 92 130 Z" fill="#F0CFAB"/>
  <!-- 앞머리 사이드뱅 -->
  <path d="M 90 122 Q 105 88 124 95 Q 146 86 150 124 Q 142 100 132 102 Q 122 116 108 105 Q 95 98 90 122 Z" fill="#16161A"/>
  <circle cx="108" cy="146" r="2" fill="#16161A"/>
  <circle cx="132" cy="146" r="2" fill="#16161A"/>
  <path d="M 116 164 Q 120 167 124 164" stroke="#3D2418" stroke-width="1.5" fill="none" stroke-linecap="round"/>
</svg>
