<svg xmlns="http://www.w3.org/2000/svg" viewBox="0 0 240 240" width="240" height="240">
  <rect width="240" height="240" fill="#C4C8CD"/>
  <ellipse cx="120" cy="250" rx="92" ry="46" fill="#3F4855"/>
  <!-- 긴 생머리 (어깨 아래로) -->
  <path d="M 64 122 Q 56 220 80 252 L 160 252 Q 184 220 176 122 Q 176 60 120 58 Q 64 60 64 122 Z" fill="#16161A"/>
  <!-- 두꺼운 머리띠 -->
  <path d="M 70 96 Q 120 75 170 96 L 170 110 Q 120 88 70 110 Z" fill="#3F4855"/>
  <!-- 머리띠 디자인 (작은 리본) -->
  <path d="M 168 86 L 178 80 L 175 96 L 168 92 Z" fill="#3F4855"/>
  <path d="M 168 92 L 175 100 L 172 108 L 165 102 Z" fill="#3F4855"/>
  <circle cx="170" cy="96" r="3" fill="#5C657A"/>
  <!-- 목 -->
  <path d="M 108 178 Q 108 198 102 220 L 138 220 Q 132 198 132 178 Z" fill="#F0CFAB"/>
  <path d="M 108 195 Q 105 208 102 218" stroke="#D4B084" stroke-width="0.8" fill="none" opacity="0.5"/>
  <!-- 얼굴 -->
  <ellipse cx="120" cy="146" rx="33" ry="40" fill="#F0CFAB"/>
  <!-- 앞머리 (머리띠 아래로 살짝) -->
  <path d="M 86 116 Q 105 105 122 105 Q 140 105 156 118 Q 145 110 130 110 Q 122 116 110 110 Q 95 110 86 116 Z" fill="#16161A"/>
  <circle cx="108" cy="146" r="2" fill="#16161A"/>
  <circle cx="132" cy="146" r="2" fill="#16161A"/>
  <path d="M 116 164 Q 120 167 124 164" stroke="#3D2418" stroke-width="1.5" fill="none" stroke-linecap="round"/>
</svg>
