<svg xmlns="http://www.w3.org/2000/svg" viewBox="0 0 240 240" width="240" height="240">
  <rect width="240" height="240" fill="#EFE5D5"/>
  <ellipse cx="120" cy="250" rx="92" ry="46" fill="#806244"/>
  <!-- 한쪽 가르마 (오른쪽으로 쏠린) 긴 검정 머리 -->
  <path d="M 64 122 Q 56 220 80 252 L 160 252 Q 184 220 176 122 Q 176 60 120 58 Q 64 60 64 122 Z" fill="#16161A"/>
  <!-- 머리 가르마 라인 (오른쪽) -->
  <path d="M 144 60 Q 138 90 132 116" stroke="#3A3A3A" stroke-width="0.8" opacity="0.6" fill="none"/>
  <!-- 목 -->
  <path d="M 108 178 Q 108 198 102 220 L 138 220 Q 132 198 132 178 Z" fill="#F0CFAB"/>
  <path d="M 108 195 Q 105 208 102 218" stroke="#D4B084" stroke-width="0.8" fill="none" opacity="0.5"/>
  <!-- 얼굴 -->
  <ellipse cx="120" cy="146" rx="33" ry="40" fill="#F0CFAB"/>
  <!-- 한쪽 가르마 앞머리 (오른쪽 8:2) -->
  <path d="M 86 116 Q 110 80 142 92 Q 152 88 156 122 Q 148 100 138 102 Q 128 116 110 110 Q 95 100 86 116 Z" fill="#16161A"/>
  <circle cx="108" cy="146" r="2" fill="#16161A"/>
  <circle cx="132" cy="146" r="2" fill="#16161A"/>
  <path d="M 116 164 Q 120 167 124 164" stroke="#3D2418" stroke-width="1.5" fill="none" stroke-linecap="round"/>
</svg>
