<svg xmlns="http://www.w3.org/2000/svg" viewBox="0 0 240 240" width="240" height="240">
  <rect width="240" height="240" fill="#CFDDE7"/>
  <ellipse cx="120" cy="250" rx="92" ry="46" fill="#3F5A75"/>
  <!-- 시뇽 (위로 올린 업스타일) -->
  <ellipse cx="120" cy="42" rx="25" ry="22" fill="#16161A"/>
  <!-- 시뇽 핀 (액세서리) -->
  <ellipse cx="138" cy="38" rx="6" ry="3" fill="#C9A14A"/>
  <!-- 깔끔하게 빗어 올린 머리 (정수리 매끈) -->
  <path d="M 76 118 Q 76 70 100 60 Q 120 50 140 60 Q 168 70 168 118 L 168 130 Q 154 108 130 108 Q 100 108 86 130 Q 78 124 76 118 Z" fill="#16161A"/>
  <!-- 머리 윤기 -->
  <path d="M 90 80 Q 105 65 115 78 Q 105 88 95 88 Z" fill="#3A3A3A" opacity="0.6"/>
  <!-- 목 -->
  <path d="M 108 178 Q 108 198 102 220 L 138 220 Q 132 198 132 178 Z" fill="#F0CFAB"/>
  <path d="M 108 195 Q 105 208 102 218" stroke="#D4B084" stroke-width="0.8" fill="none" opacity="0.5"/>
  <!-- 얼굴 -->
  <ellipse cx="120" cy="146" rx="33" ry="40" fill="#F0CFAB"/>
  <!-- 잔머리 (옆얼굴 살짝) -->
  <path d="M 88 118 Q 92 130 88 142" stroke="#16161A" stroke-width="2" fill="none" stroke-linecap="round"/>
  <path d="M 152 118 Q 148 130 152 142" stroke="#16161A" stroke-width="2" fill="none" stroke-linecap="round"/>
  <!-- 귀걸이 -->
  <circle cx="86" cy="158" r="2.5" fill="#C9A14A"/>
  <circle cx="154" cy="158" r="2.5" fill="#C9A14A"/>
  <circle cx="108" cy="146" r="2" fill="#16161A"/>
  <circle cx="132" cy="146" r="2" fill="#16161A"/>
  <path d="M 116 164 Q 120 167 124 164" stroke="#3D2418" stroke-width="1.5" fill="none" stroke-linecap="round"/>
</svg>
