<svg xmlns="http://www.w3.org/2000/svg" viewBox="0 0 240 240" width="240" height="240">
  <rect width="240" height="240" fill="#D2E2E2"/>
  <ellipse cx="120" cy="250" rx="92" ry="46" fill="#3F6E6E"/>
  <!-- 셔츠 칼라 -->
  <path d="M 100 200 L 120 220 L 140 200 L 145 240 L 95 240 Z" fill="#2D5050"/>
  <!-- 남, 적당한 길이 단정한 머리 (옆가르마) -->
  <path d="M 80 120 Q 75 64 122 60 Q 168 64 162 122 L 162 130 Q 145 110 124 108 Q 100 110 88 110 Q 80 115 80 130 Z" fill="#16161A"/>
  <!-- 목 -->
  <path d="M 108 178 Q 108 198 102 220 L 138 220 Q 132 198 132 178 Z" fill="#F0CFAB"/>
  <path d="M 108 195 Q 105 208 102 218" stroke="#D4B084" stroke-width="0.8" fill="none" opacity="0.5"/>
  <ellipse cx="120" cy="146" rx="33" ry="40" fill="#F0CFAB"/>
  <!-- 이마 (옆가르마) -->
  <path d="M 88 120 Q 110 96 132 102 Q 148 98 154 122 L 154 114 Q 138 96 122 98 Q 105 96 88 110 Z" fill="#16161A"/>
  <!-- 안경 (얇은 메탈) -->
  <circle cx="108" cy="146" r="10" fill="none" stroke="#2D2D32" stroke-width="1.5"/>
  <circle cx="132" cy="146" r="10" fill="none" stroke="#2D2D32" stroke-width="1.5"/>
  <line x1="118" y1="146" x2="122" y2="146" stroke="#2D2D32" stroke-width="1.5"/>
  <line x1="98" y1="144" x2="88" y2="142" stroke="#2D2D32" stroke-width="1.5" stroke-linecap="round"/>
  <line x1="142" y1="144" x2="152" y2="142" stroke="#2D2D32" stroke-width="1.5" stroke-linecap="round"/>
  <!-- 눈썹 -->
  <path d="M 102 134 L 114 132" stroke="#16161A" stroke-width="2" stroke-linecap="round"/>
  <path d="M 126 132 L 138 134" stroke="#16161A" stroke-width="2" stroke-linecap="round"/>
  <!-- 눈 (안경 안) -->
  <circle cx="108" cy="146" r="1.8" fill="#16161A"/>
  <circle cx="132" cy="146" r="1.8" fill="#16161A"/>
  <!-- 입 -->
  <path d="M 116 168 L 124 168" stroke="#3D2418" stroke-width="1.5" stroke-linecap="round"/>
</svg>
