<svg xmlns="http://www.w3.org/2000/svg" viewBox="0 0 240 240" width="240" height="240">
  <rect width="240" height="240" fill="#E2DCEE"/>
  <ellipse cx="120" cy="250" rx="92" ry="46" fill="#6E5879"/>
  <!-- 픽시컷 (짧고 비대칭, 옆머리 살짝 길게) -->
  <path d="M 78 116 Q 75 60 122 58 Q 168 60 162 116 Q 162 138 154 145 L 138 145 Q 130 130 122 132 Q 110 132 98 138 Q 84 130 78 116 Z" fill="#16161A"/>
  <!-- 비대칭 옆머리 (한쪽만 길게) -->
  <path d="M 152 120 Q 162 145 158 162 L 152 145 Q 152 130 152 120 Z" fill="#16161A"/>
  <!-- 목 -->
  <path d="M 108 178 Q 108 198 102 220 L 138 220 Q 132 198 132 178 Z" fill="#F0CFAB"/>
  <path d="M 108 195 Q 105 208 102 218" stroke="#D4B084" stroke-width="0.8" fill="none" opacity="0.5"/>
  <!-- V라인 갸름한 얼굴 -->
  <path d="M 92 128 Q 92 165 102 184 Q 120 195 138 184 Q 148 165 148 128 Q 148 108 120 106 Q 92 108 92 128 Z" fill="#F0CFAB"/>
  <!-- 앞머리 (사이드 스왑) -->
  <path d="M 86 116 Q 105 88 132 100 Q 145 92 158 118 Q 148 100 138 102 Q 128 116 110 102 Q 92 96 86 116 Z" fill="#16161A"/>
  <!-- 귀걸이 (포인트) -->
  <circle cx="86" cy="158" r="3" fill="#C9A14A"/>
  <circle cx="154" cy="158" r="3" fill="#C9A14A"/>
  <circle cx="108" cy="146" r="2" fill="#16161A"/>
  <circle cx="132" cy="146" r="2" fill="#16161A"/>
  <path d="M 116 164 L 124 164" stroke="#A8324A" stroke-width="2" stroke-linecap="round"/>
</svg>
