<svg xmlns="http://www.w3.org/2000/svg" viewBox="0 0 240 240" width="240" height="240">
  <rect width="240" height="240" fill="#D8E4EC"/>
  <!-- 셔츠 -->
  <ellipse cx="120" cy="250" rx="92" ry="46" fill="#3A4F65"/>
  <!-- 셔츠 칼라 -->
  <path d="M 100 200 L 120 220 L 140 200 L 145 240 L 95 240 Z" fill="#2A3D52"/>
  <!-- 남, 깔끔 짧은 검정 머리 -->
  <path d="M 80 120 Q 75 65 122 60 Q 168 65 162 122 L 162 132 Q 152 110 122 105 Q 95 108 80 132 Z" fill="#16161A"/>
  <!-- 목 -->
  <path d="M 108 178 Q 108 198 102 220 L 138 220 Q 132 198 132 178 Z" fill="#F0CFAB"/>
  <path d="M 108 195 Q 105 208 102 218" stroke="#D4B084" stroke-width="0.8" fill="none" opacity="0.5"/>
  <!-- 얼굴 -->
  <ellipse cx="120" cy="146" rx="33" ry="40" fill="#F0CFAB"/>
  <!-- 이마 라인 -->
  <path d="M 88 122 Q 108 105 122 107 Q 140 105 154 122 L 154 116 Q 138 100 122 102 Q 105 100 88 116 Z" fill="#16161A"/>
  <!-- 눈썹 (짧게) -->
  <path d="M 102 134 L 114 133" stroke="#16161A" stroke-width="2" stroke-linecap="round"/>
  <path d="M 126 133 L 138 134" stroke="#16161A" stroke-width="2" stroke-linecap="round"/>
  <!-- 눈 -->
  <circle cx="108" cy="146" r="2" fill="#16161A"/>
  <circle cx="132" cy="146" r="2" fill="#16161A"/>
  <!-- 입 -->
  <path d="M 116 165 L 124 165" stroke="#3D2418" stroke-width="1.5" stroke-linecap="round"/>
</svg>
